<mxfile host="app.diagrams.net" modified="2023-06-05T04:02:19.488Z" agent="Mozilla/5.0 (Windows NT 10.0; Win64; x64) AppleWebKit/537.36 (KHTML, like Gecko) Chrome/114.0.0.0 Safari/537.36" etag="LqhXvzy_Hen2ujwYAm1X" version="21.3.7" type="google">
  <diagram id="R2lEEEUBdFMjLlhIrx00" name="Page-1">
    <mxGraphModel grid="1" page="1" gridSize="10" guides="1" tooltips="1" connect="1" arrows="1" fold="1" pageScale="1" pageWidth="850" pageHeight="1100" math="0" shadow="0" extFonts="Permanent Marker^https://fonts.googleapis.com/css?family=Permanent+Marker">
      <root>
        <mxCell id="0" />
        <mxCell id="1" parent="0" />
        <mxCell id="n4cx7VP9dTrJRuBZ_Bju-263" value="" style="whiteSpace=wrap;html=1;aspect=fixed;" vertex="1" parent="1">
          <mxGeometry x="760" y="-310" width="1070" height="1070" as="geometry" />
        </mxCell>
        <mxCell id="n4cx7VP9dTrJRuBZ_Bju-131" value="" style="whiteSpace=wrap;html=1;aspect=fixed;" vertex="1" parent="1">
          <mxGeometry x="-270" y="-60" width="1010" height="1010" as="geometry" />
        </mxCell>
        <mxCell id="n4cx7VP9dTrJRuBZ_Bju-56" value="Player controller" style="shape=table;startSize=30;container=1;collapsible=1;childLayout=tableLayout;fixedRows=1;rowLines=0;fontStyle=1;align=center;resizeLast=1;" vertex="1" parent="1">
          <mxGeometry x="60" y="20" width="250" height="260" as="geometry" />
        </mxCell>
        <mxCell id="n4cx7VP9dTrJRuBZ_Bju-57" value="" style="shape=partialRectangle;collapsible=0;dropTarget=0;pointerEvents=0;fillColor=none;points=[[0,0.5],[1,0.5]];portConstraint=eastwest;top=0;left=0;right=0;bottom=1;" vertex="1" parent="n4cx7VP9dTrJRuBZ_Bju-56">
          <mxGeometry y="30" width="250" height="70" as="geometry" />
        </mxCell>
        <mxCell id="n4cx7VP9dTrJRuBZ_Bju-58" value="PK" style="shape=partialRectangle;overflow=hidden;connectable=0;fillColor=none;top=0;left=0;bottom=0;right=0;fontStyle=1;" vertex="1" parent="n4cx7VP9dTrJRuBZ_Bju-57">
          <mxGeometry width="30" height="70" as="geometry">
            <mxRectangle width="30" height="70" as="alternateBounds" />
          </mxGeometry>
        </mxCell>
        <mxCell id="n4cx7VP9dTrJRuBZ_Bju-59" value="-id: int&#xa;-HVRPlayerController: class&#xa;-Character controller:Â player control&#xa;-HVRCameraRig:class&#xa;" style="shape=partialRectangle;overflow=hidden;connectable=0;fillColor=none;top=0;left=0;bottom=0;right=0;align=left;spacingLeft=6;fontStyle=5;" vertex="1" parent="n4cx7VP9dTrJRuBZ_Bju-57">
          <mxGeometry x="30" width="220" height="70" as="geometry">
            <mxRectangle width="220" height="70" as="alternateBounds" />
          </mxGeometry>
        </mxCell>
        <mxCell id="n4cx7VP9dTrJRuBZ_Bju-60" value="" style="shape=partialRectangle;collapsible=0;dropTarget=0;pointerEvents=0;fillColor=none;points=[[0,0.5],[1,0.5]];portConstraint=eastwest;top=0;left=0;right=0;bottom=0;" vertex="1" parent="n4cx7VP9dTrJRuBZ_Bju-56">
          <mxGeometry y="100" width="250" height="30" as="geometry" />
        </mxCell>
        <mxCell id="n4cx7VP9dTrJRuBZ_Bju-61" value="" style="shape=partialRectangle;overflow=hidden;connectable=0;fillColor=none;top=0;left=0;bottom=0;right=0;" vertex="1" parent="n4cx7VP9dTrJRuBZ_Bju-60">
          <mxGeometry width="30" height="30" as="geometry">
            <mxRectangle width="30" height="30" as="alternateBounds" />
          </mxGeometry>
        </mxCell>
        <mxCell id="n4cx7VP9dTrJRuBZ_Bju-62" value="+awake():void" style="shape=partialRectangle;overflow=hidden;connectable=0;fillColor=none;top=0;left=0;bottom=0;right=0;align=left;spacingLeft=6;" vertex="1" parent="n4cx7VP9dTrJRuBZ_Bju-60">
          <mxGeometry x="30" width="220" height="30" as="geometry">
            <mxRectangle width="220" height="30" as="alternateBounds" />
          </mxGeometry>
        </mxCell>
        <mxCell id="n4cx7VP9dTrJRuBZ_Bju-83" value="" style="shape=partialRectangle;collapsible=0;dropTarget=0;pointerEvents=0;fillColor=none;points=[[0,0.5],[1,0.5]];portConstraint=eastwest;top=0;left=0;right=0;bottom=0;" vertex="1" parent="n4cx7VP9dTrJRuBZ_Bju-56">
          <mxGeometry y="130" width="250" height="30" as="geometry" />
        </mxCell>
        <mxCell id="n4cx7VP9dTrJRuBZ_Bju-84" value="" style="shape=partialRectangle;overflow=hidden;connectable=0;fillColor=none;top=0;left=0;bottom=0;right=0;" vertex="1" parent="n4cx7VP9dTrJRuBZ_Bju-83">
          <mxGeometry width="30" height="30" as="geometry">
            <mxRectangle width="30" height="30" as="alternateBounds" />
          </mxGeometry>
        </mxCell>
        <mxCell id="n4cx7VP9dTrJRuBZ_Bju-85" value="+CorrectCamera():void" style="shape=partialRectangle;overflow=hidden;connectable=0;fillColor=none;top=0;left=0;bottom=0;right=0;align=left;spacingLeft=6;" vertex="1" parent="n4cx7VP9dTrJRuBZ_Bju-83">
          <mxGeometry x="30" width="220" height="30" as="geometry">
            <mxRectangle width="220" height="30" as="alternateBounds" />
          </mxGeometry>
        </mxCell>
        <mxCell id="n4cx7VP9dTrJRuBZ_Bju-89" value="" style="shape=partialRectangle;collapsible=0;dropTarget=0;pointerEvents=0;fillColor=none;points=[[0,0.5],[1,0.5]];portConstraint=eastwest;top=0;left=0;right=0;bottom=0;" vertex="1" parent="n4cx7VP9dTrJRuBZ_Bju-56">
          <mxGeometry y="160" width="250" height="30" as="geometry" />
        </mxCell>
        <mxCell id="n4cx7VP9dTrJRuBZ_Bju-90" value="" style="shape=partialRectangle;overflow=hidden;connectable=0;fillColor=none;top=0;left=0;bottom=0;right=0;" vertex="1" parent="n4cx7VP9dTrJRuBZ_Bju-89">
          <mxGeometry width="30" height="30" as="geometry">
            <mxRectangle width="30" height="30" as="alternateBounds" />
          </mxGeometry>
        </mxCell>
        <mxCell id="n4cx7VP9dTrJRuBZ_Bju-91" value="+CheckCameraMovement():void&#xa;&#xa;" style="shape=partialRectangle;overflow=hidden;connectable=0;fillColor=none;top=0;left=0;bottom=0;right=0;align=left;spacingLeft=6;" vertex="1" parent="n4cx7VP9dTrJRuBZ_Bju-89">
          <mxGeometry x="30" width="220" height="30" as="geometry">
            <mxRectangle width="220" height="30" as="alternateBounds" />
          </mxGeometry>
        </mxCell>
        <mxCell id="n4cx7VP9dTrJRuBZ_Bju-122" value="" style="shape=partialRectangle;collapsible=0;dropTarget=0;pointerEvents=0;fillColor=none;points=[[0,0.5],[1,0.5]];portConstraint=eastwest;top=0;left=0;right=0;bottom=0;" vertex="1" parent="n4cx7VP9dTrJRuBZ_Bju-56">
          <mxGeometry y="190" width="250" height="30" as="geometry" />
        </mxCell>
        <mxCell id="n4cx7VP9dTrJRuBZ_Bju-123" value="" style="shape=partialRectangle;overflow=hidden;connectable=0;fillColor=none;top=0;left=0;bottom=0;right=0;" vertex="1" parent="n4cx7VP9dTrJRuBZ_Bju-122">
          <mxGeometry width="30" height="30" as="geometry">
            <mxRectangle width="30" height="30" as="alternateBounds" />
          </mxGeometry>
        </mxCell>
        <mxCell id="n4cx7VP9dTrJRuBZ_Bju-124" value="+LeftHand_id:int&#xa;&#xa;" style="shape=partialRectangle;overflow=hidden;connectable=0;fillColor=none;top=0;left=0;bottom=0;right=0;align=left;spacingLeft=6;" vertex="1" parent="n4cx7VP9dTrJRuBZ_Bju-122">
          <mxGeometry x="30" width="220" height="30" as="geometry">
            <mxRectangle width="220" height="30" as="alternateBounds" />
          </mxGeometry>
        </mxCell>
        <mxCell id="n4cx7VP9dTrJRuBZ_Bju-125" value="" style="shape=partialRectangle;collapsible=0;dropTarget=0;pointerEvents=0;fillColor=none;points=[[0,0.5],[1,0.5]];portConstraint=eastwest;top=0;left=0;right=0;bottom=0;" vertex="1" parent="n4cx7VP9dTrJRuBZ_Bju-56">
          <mxGeometry y="220" width="250" height="30" as="geometry" />
        </mxCell>
        <mxCell id="n4cx7VP9dTrJRuBZ_Bju-126" value="" style="shape=partialRectangle;overflow=hidden;connectable=0;fillColor=none;top=0;left=0;bottom=0;right=0;" vertex="1" parent="n4cx7VP9dTrJRuBZ_Bju-125">
          <mxGeometry width="30" height="30" as="geometry">
            <mxRectangle width="30" height="30" as="alternateBounds" />
          </mxGeometry>
        </mxCell>
        <mxCell id="n4cx7VP9dTrJRuBZ_Bju-127" value="+RightHand_id:int&#xa;" style="shape=partialRectangle;overflow=hidden;connectable=0;fillColor=none;top=0;left=0;bottom=0;right=0;align=left;spacingLeft=6;" vertex="1" parent="n4cx7VP9dTrJRuBZ_Bju-125">
          <mxGeometry x="30" width="220" height="30" as="geometry">
            <mxRectangle width="220" height="30" as="alternateBounds" />
          </mxGeometry>
        </mxCell>
        <mxCell id="n4cx7VP9dTrJRuBZ_Bju-69" value="LeftHand" style="shape=table;startSize=30;container=1;collapsible=1;childLayout=tableLayout;fixedRows=1;rowLines=0;fontStyle=1;align=center;resizeLast=1;" vertex="1" parent="1">
          <mxGeometry x="60" y="560" width="250" height="293" as="geometry" />
        </mxCell>
        <mxCell id="n4cx7VP9dTrJRuBZ_Bju-70" value="" style="shape=partialRectangle;collapsible=0;dropTarget=0;pointerEvents=0;fillColor=none;points=[[0,0.5],[1,0.5]];portConstraint=eastwest;top=0;left=0;right=0;bottom=1;" vertex="1" parent="n4cx7VP9dTrJRuBZ_Bju-69">
          <mxGeometry y="30" width="250" height="133" as="geometry" />
        </mxCell>
        <mxCell id="n4cx7VP9dTrJRuBZ_Bju-71" value="PK" style="shape=partialRectangle;overflow=hidden;connectable=0;fillColor=none;top=0;left=0;bottom=0;right=0;fontStyle=1;" vertex="1" parent="n4cx7VP9dTrJRuBZ_Bju-70">
          <mxGeometry width="30" height="133" as="geometry">
            <mxRectangle width="30" height="133" as="alternateBounds" />
          </mxGeometry>
        </mxCell>
        <mxCell id="n4cx7VP9dTrJRuBZ_Bju-72" value="&#xa;id:int&#xa;RigidBodyL: Rigidbody3d&#xa;HVRGrabberBase:class&#xa;HVRHandGrabber:class&#xa;LeftHand: model&#xa;Physics LeftHand: object&#xa;" style="shape=partialRectangle;overflow=hidden;connectable=0;fillColor=none;top=0;left=0;bottom=0;right=0;align=left;spacingLeft=6;fontStyle=5;" vertex="1" parent="n4cx7VP9dTrJRuBZ_Bju-70">
          <mxGeometry x="30" width="220" height="133" as="geometry">
            <mxRectangle width="220" height="133" as="alternateBounds" />
          </mxGeometry>
        </mxCell>
        <mxCell id="n4cx7VP9dTrJRuBZ_Bju-73" value="" style="shape=partialRectangle;collapsible=0;dropTarget=0;pointerEvents=0;fillColor=none;points=[[0,0.5],[1,0.5]];portConstraint=eastwest;top=0;left=0;right=0;bottom=0;" vertex="1" parent="n4cx7VP9dTrJRuBZ_Bju-69">
          <mxGeometry y="163" width="250" height="30" as="geometry" />
        </mxCell>
        <mxCell id="n4cx7VP9dTrJRuBZ_Bju-74" value="" style="shape=partialRectangle;overflow=hidden;connectable=0;fillColor=none;top=0;left=0;bottom=0;right=0;" vertex="1" parent="n4cx7VP9dTrJRuBZ_Bju-73">
          <mxGeometry width="30" height="30" as="geometry">
            <mxRectangle width="30" height="30" as="alternateBounds" />
          </mxGeometry>
        </mxCell>
        <mxCell id="n4cx7VP9dTrJRuBZ_Bju-75" value="Awake(): void" style="shape=partialRectangle;overflow=hidden;connectable=0;fillColor=none;top=0;left=0;bottom=0;right=0;align=left;spacingLeft=6;" vertex="1" parent="n4cx7VP9dTrJRuBZ_Bju-73">
          <mxGeometry x="30" width="220" height="30" as="geometry">
            <mxRectangle width="220" height="30" as="alternateBounds" />
          </mxGeometry>
        </mxCell>
        <mxCell id="n4cx7VP9dTrJRuBZ_Bju-92" value="" style="shape=partialRectangle;collapsible=0;dropTarget=0;pointerEvents=0;fillColor=none;points=[[0,0.5],[1,0.5]];portConstraint=eastwest;top=0;left=0;right=0;bottom=0;" vertex="1" parent="n4cx7VP9dTrJRuBZ_Bju-69">
          <mxGeometry y="193" width="250" height="30" as="geometry" />
        </mxCell>
        <mxCell id="n4cx7VP9dTrJRuBZ_Bju-93" value="" style="shape=partialRectangle;overflow=hidden;connectable=0;fillColor=none;top=0;left=0;bottom=0;right=0;" vertex="1" parent="n4cx7VP9dTrJRuBZ_Bju-92">
          <mxGeometry width="30" height="30" as="geometry">
            <mxRectangle width="30" height="30" as="alternateBounds" />
          </mxGeometry>
        </mxCell>
        <mxCell id="n4cx7VP9dTrJRuBZ_Bju-94" value="Enablecollision(): void" style="shape=partialRectangle;overflow=hidden;connectable=0;fillColor=none;top=0;left=0;bottom=0;right=0;align=left;spacingLeft=6;" vertex="1" parent="n4cx7VP9dTrJRuBZ_Bju-92">
          <mxGeometry x="30" width="220" height="30" as="geometry">
            <mxRectangle width="220" height="30" as="alternateBounds" />
          </mxGeometry>
        </mxCell>
        <mxCell id="n4cx7VP9dTrJRuBZ_Bju-95" value="" style="shape=partialRectangle;collapsible=0;dropTarget=0;pointerEvents=0;fillColor=none;points=[[0,0.5],[1,0.5]];portConstraint=eastwest;top=0;left=0;right=0;bottom=0;" vertex="1" parent="n4cx7VP9dTrJRuBZ_Bju-69">
          <mxGeometry y="223" width="250" height="30" as="geometry" />
        </mxCell>
        <mxCell id="n4cx7VP9dTrJRuBZ_Bju-96" value="" style="shape=partialRectangle;overflow=hidden;connectable=0;fillColor=none;top=0;left=0;bottom=0;right=0;" vertex="1" parent="n4cx7VP9dTrJRuBZ_Bju-95">
          <mxGeometry width="30" height="30" as="geometry">
            <mxRectangle width="30" height="30" as="alternateBounds" />
          </mxGeometry>
        </mxCell>
        <mxCell id="n4cx7VP9dTrJRuBZ_Bju-97" value="setupcollider(): void" style="shape=partialRectangle;overflow=hidden;connectable=0;fillColor=none;top=0;left=0;bottom=0;right=0;align=left;spacingLeft=6;" vertex="1" parent="n4cx7VP9dTrJRuBZ_Bju-95">
          <mxGeometry x="30" width="220" height="30" as="geometry">
            <mxRectangle width="220" height="30" as="alternateBounds" />
          </mxGeometry>
        </mxCell>
        <mxCell id="n4cx7VP9dTrJRuBZ_Bju-117" value="" style="shape=partialRectangle;collapsible=0;dropTarget=0;pointerEvents=0;fillColor=none;points=[[0,0.5],[1,0.5]];portConstraint=eastwest;top=0;left=0;right=0;bottom=0;" vertex="1" parent="n4cx7VP9dTrJRuBZ_Bju-69">
          <mxGeometry y="253" width="250" height="30" as="geometry" />
        </mxCell>
        <mxCell id="n4cx7VP9dTrJRuBZ_Bju-118" value="" style="shape=partialRectangle;overflow=hidden;connectable=0;fillColor=none;top=0;left=0;bottom=0;right=0;" vertex="1" parent="n4cx7VP9dTrJRuBZ_Bju-117">
          <mxGeometry width="30" height="30" as="geometry">
            <mxRectangle width="30" height="30" as="alternateBounds" />
          </mxGeometry>
        </mxCell>
        <mxCell id="n4cx7VP9dTrJRuBZ_Bju-119" value="wristMenu_id:int" style="shape=partialRectangle;overflow=hidden;connectable=0;fillColor=none;top=0;left=0;bottom=0;right=0;align=left;spacingLeft=6;" vertex="1" parent="n4cx7VP9dTrJRuBZ_Bju-117">
          <mxGeometry x="30" width="220" height="30" as="geometry">
            <mxRectangle width="220" height="30" as="alternateBounds" />
          </mxGeometry>
        </mxCell>
        <mxCell id="n4cx7VP9dTrJRuBZ_Bju-76" value="RightHand" style="shape=table;startSize=30;container=1;collapsible=1;childLayout=tableLayout;fixedRows=1;rowLines=0;fontStyle=1;align=center;resizeLast=1;" vertex="1" parent="1">
          <mxGeometry x="60" y="300" width="250" height="223" as="geometry" />
        </mxCell>
        <mxCell id="n4cx7VP9dTrJRuBZ_Bju-77" value="" style="shape=partialRectangle;collapsible=0;dropTarget=0;pointerEvents=0;fillColor=none;points=[[0,0.5],[1,0.5]];portConstraint=eastwest;top=0;left=0;right=0;bottom=1;" vertex="1" parent="n4cx7VP9dTrJRuBZ_Bju-76">
          <mxGeometry y="30" width="250" height="93" as="geometry" />
        </mxCell>
        <mxCell id="n4cx7VP9dTrJRuBZ_Bju-78" value="PK" style="shape=partialRectangle;overflow=hidden;connectable=0;fillColor=none;top=0;left=0;bottom=0;right=0;fontStyle=1;" vertex="1" parent="n4cx7VP9dTrJRuBZ_Bju-77">
          <mxGeometry width="30" height="93" as="geometry">
            <mxRectangle width="30" height="93" as="alternateBounds" />
          </mxGeometry>
        </mxCell>
        <mxCell id="n4cx7VP9dTrJRuBZ_Bju-79" value="id:int&#xa;RigidBodyL: Rigidbody3d&#xa;HVRGrabberBase:class&#xa;HVRHandGrabber:class&#xa;LeftHand: model&#xa;Physics RightHand: object&#xa;" style="shape=partialRectangle;overflow=hidden;connectable=0;fillColor=none;top=0;left=0;bottom=0;right=0;align=left;spacingLeft=6;fontStyle=5;" vertex="1" parent="n4cx7VP9dTrJRuBZ_Bju-77">
          <mxGeometry x="30" width="220" height="93" as="geometry">
            <mxRectangle width="220" height="93" as="alternateBounds" />
          </mxGeometry>
        </mxCell>
        <mxCell id="n4cx7VP9dTrJRuBZ_Bju-80" value="" style="shape=partialRectangle;collapsible=0;dropTarget=0;pointerEvents=0;fillColor=none;points=[[0,0.5],[1,0.5]];portConstraint=eastwest;top=0;left=0;right=0;bottom=0;" vertex="1" parent="n4cx7VP9dTrJRuBZ_Bju-76">
          <mxGeometry y="123" width="250" height="30" as="geometry" />
        </mxCell>
        <mxCell id="n4cx7VP9dTrJRuBZ_Bju-81" value="" style="shape=partialRectangle;overflow=hidden;connectable=0;fillColor=none;top=0;left=0;bottom=0;right=0;" vertex="1" parent="n4cx7VP9dTrJRuBZ_Bju-80">
          <mxGeometry width="30" height="30" as="geometry">
            <mxRectangle width="30" height="30" as="alternateBounds" />
          </mxGeometry>
        </mxCell>
        <mxCell id="n4cx7VP9dTrJRuBZ_Bju-82" value="Awake(): void" style="shape=partialRectangle;overflow=hidden;connectable=0;fillColor=none;top=0;left=0;bottom=0;right=0;align=left;spacingLeft=6;" vertex="1" parent="n4cx7VP9dTrJRuBZ_Bju-80">
          <mxGeometry x="30" width="220" height="30" as="geometry">
            <mxRectangle width="220" height="30" as="alternateBounds" />
          </mxGeometry>
        </mxCell>
        <mxCell id="n4cx7VP9dTrJRuBZ_Bju-98" value="" style="shape=partialRectangle;collapsible=0;dropTarget=0;pointerEvents=0;fillColor=none;points=[[0,0.5],[1,0.5]];portConstraint=eastwest;top=0;left=0;right=0;bottom=0;" vertex="1" parent="n4cx7VP9dTrJRuBZ_Bju-76">
          <mxGeometry y="153" width="250" height="30" as="geometry" />
        </mxCell>
        <mxCell id="n4cx7VP9dTrJRuBZ_Bju-99" value="" style="shape=partialRectangle;overflow=hidden;connectable=0;fillColor=none;top=0;left=0;bottom=0;right=0;" vertex="1" parent="n4cx7VP9dTrJRuBZ_Bju-98">
          <mxGeometry width="30" height="30" as="geometry">
            <mxRectangle width="30" height="30" as="alternateBounds" />
          </mxGeometry>
        </mxCell>
        <mxCell id="n4cx7VP9dTrJRuBZ_Bju-100" value="Enablecollision(): void" style="shape=partialRectangle;overflow=hidden;connectable=0;fillColor=none;top=0;left=0;bottom=0;right=0;align=left;spacingLeft=6;" vertex="1" parent="n4cx7VP9dTrJRuBZ_Bju-98">
          <mxGeometry x="30" width="220" height="30" as="geometry">
            <mxRectangle width="220" height="30" as="alternateBounds" />
          </mxGeometry>
        </mxCell>
        <mxCell id="n4cx7VP9dTrJRuBZ_Bju-101" value="" style="shape=partialRectangle;collapsible=0;dropTarget=0;pointerEvents=0;fillColor=none;points=[[0,0.5],[1,0.5]];portConstraint=eastwest;top=0;left=0;right=0;bottom=0;" vertex="1" parent="n4cx7VP9dTrJRuBZ_Bju-76">
          <mxGeometry y="183" width="250" height="30" as="geometry" />
        </mxCell>
        <mxCell id="n4cx7VP9dTrJRuBZ_Bju-102" value="" style="shape=partialRectangle;overflow=hidden;connectable=0;fillColor=none;top=0;left=0;bottom=0;right=0;" vertex="1" parent="n4cx7VP9dTrJRuBZ_Bju-101">
          <mxGeometry width="30" height="30" as="geometry">
            <mxRectangle width="30" height="30" as="alternateBounds" />
          </mxGeometry>
        </mxCell>
        <mxCell id="n4cx7VP9dTrJRuBZ_Bju-103" value="setupcollider(): void" style="shape=partialRectangle;overflow=hidden;connectable=0;fillColor=none;top=0;left=0;bottom=0;right=0;align=left;spacingLeft=6;" vertex="1" parent="n4cx7VP9dTrJRuBZ_Bju-101">
          <mxGeometry x="30" width="220" height="30" as="geometry">
            <mxRectangle width="220" height="30" as="alternateBounds" />
          </mxGeometry>
        </mxCell>
        <mxCell id="n4cx7VP9dTrJRuBZ_Bju-104" value="WristMenu" style="shape=table;startSize=30;container=1;collapsible=1;childLayout=tableLayout;fixedRows=1;rowLines=0;fontStyle=1;align=center;resizeLast=1;" vertex="1" parent="1">
          <mxGeometry x="390" y="370" width="250" height="223" as="geometry" />
        </mxCell>
        <mxCell id="n4cx7VP9dTrJRuBZ_Bju-105" value="" style="shape=partialRectangle;collapsible=0;dropTarget=0;pointerEvents=0;fillColor=none;points=[[0,0.5],[1,0.5]];portConstraint=eastwest;top=0;left=0;right=0;bottom=1;" vertex="1" parent="n4cx7VP9dTrJRuBZ_Bju-104">
          <mxGeometry y="30" width="250" height="133" as="geometry" />
        </mxCell>
        <mxCell id="n4cx7VP9dTrJRuBZ_Bju-106" value="PK" style="shape=partialRectangle;overflow=hidden;connectable=0;fillColor=none;top=0;left=0;bottom=0;right=0;fontStyle=1;" vertex="1" parent="n4cx7VP9dTrJRuBZ_Bju-105">
          <mxGeometry width="30" height="133" as="geometry">
            <mxRectangle width="30" height="133" as="alternateBounds" />
          </mxGeometry>
        </mxCell>
        <mxCell id="n4cx7VP9dTrJRuBZ_Bju-107" value="&#xa;id:int&#xa;Pencil:obj&#xa;click_event:event&#xa;touch_event:event&#xa;LoadScene:void&#xa;whiteboardmarker:class&#xa;&#xa;" style="shape=partialRectangle;overflow=hidden;connectable=0;fillColor=none;top=0;left=0;bottom=0;right=0;align=left;spacingLeft=6;fontStyle=5;" vertex="1" parent="n4cx7VP9dTrJRuBZ_Bju-105">
          <mxGeometry x="30" width="220" height="133" as="geometry">
            <mxRectangle width="220" height="133" as="alternateBounds" />
          </mxGeometry>
        </mxCell>
        <mxCell id="n4cx7VP9dTrJRuBZ_Bju-108" value="" style="shape=partialRectangle;collapsible=0;dropTarget=0;pointerEvents=0;fillColor=none;points=[[0,0.5],[1,0.5]];portConstraint=eastwest;top=0;left=0;right=0;bottom=0;" vertex="1" parent="n4cx7VP9dTrJRuBZ_Bju-104">
          <mxGeometry y="163" width="250" height="30" as="geometry" />
        </mxCell>
        <mxCell id="n4cx7VP9dTrJRuBZ_Bju-109" value="" style="shape=partialRectangle;overflow=hidden;connectable=0;fillColor=none;top=0;left=0;bottom=0;right=0;" vertex="1" parent="n4cx7VP9dTrJRuBZ_Bju-108">
          <mxGeometry width="30" height="30" as="geometry">
            <mxRectangle width="30" height="30" as="alternateBounds" />
          </mxGeometry>
        </mxCell>
        <mxCell id="n4cx7VP9dTrJRuBZ_Bju-110" value="Onclick():event" style="shape=partialRectangle;overflow=hidden;connectable=0;fillColor=none;top=0;left=0;bottom=0;right=0;align=left;spacingLeft=6;" vertex="1" parent="n4cx7VP9dTrJRuBZ_Bju-108">
          <mxGeometry x="30" width="220" height="30" as="geometry">
            <mxRectangle width="220" height="30" as="alternateBounds" />
          </mxGeometry>
        </mxCell>
        <mxCell id="n4cx7VP9dTrJRuBZ_Bju-111" value="" style="shape=partialRectangle;collapsible=0;dropTarget=0;pointerEvents=0;fillColor=none;points=[[0,0.5],[1,0.5]];portConstraint=eastwest;top=0;left=0;right=0;bottom=0;" vertex="1" parent="n4cx7VP9dTrJRuBZ_Bju-104">
          <mxGeometry y="193" width="250" height="30" as="geometry" />
        </mxCell>
        <mxCell id="n4cx7VP9dTrJRuBZ_Bju-112" value="" style="shape=partialRectangle;overflow=hidden;connectable=0;fillColor=none;top=0;left=0;bottom=0;right=0;" vertex="1" parent="n4cx7VP9dTrJRuBZ_Bju-111">
          <mxGeometry width="30" height="30" as="geometry">
            <mxRectangle width="30" height="30" as="alternateBounds" />
          </mxGeometry>
        </mxCell>
        <mxCell id="n4cx7VP9dTrJRuBZ_Bju-113" value="update():event" style="shape=partialRectangle;overflow=hidden;connectable=0;fillColor=none;top=0;left=0;bottom=0;right=0;align=left;spacingLeft=6;" vertex="1" parent="n4cx7VP9dTrJRuBZ_Bju-111">
          <mxGeometry x="30" width="220" height="30" as="geometry">
            <mxRectangle width="220" height="30" as="alternateBounds" />
          </mxGeometry>
        </mxCell>
        <mxCell id="n4cx7VP9dTrJRuBZ_Bju-132" value="&lt;font style=&quot;font-size: 32px;&quot;&gt;PLAYER&lt;/font&gt;" style="text;html=1;strokeColor=none;fillColor=none;align=center;verticalAlign=middle;whiteSpace=wrap;rounded=0;" vertex="1" parent="1">
          <mxGeometry x="-166" y="-30" width="60" height="30" as="geometry" />
        </mxCell>
        <mxCell id="n4cx7VP9dTrJRuBZ_Bju-133" value="Main Screen" style="shape=table;startSize=30;container=1;collapsible=1;childLayout=tableLayout;fixedRows=1;rowLines=0;fontStyle=1;align=center;resizeLast=1;" vertex="1" parent="1">
          <mxGeometry x="920" y="10" width="250" height="230" as="geometry" />
        </mxCell>
        <mxCell id="n4cx7VP9dTrJRuBZ_Bju-134" value="" style="shape=partialRectangle;collapsible=0;dropTarget=0;pointerEvents=0;fillColor=none;points=[[0,0.5],[1,0.5]];portConstraint=eastwest;top=0;left=0;right=0;bottom=1;" vertex="1" parent="n4cx7VP9dTrJRuBZ_Bju-133">
          <mxGeometry y="30" width="250" height="70" as="geometry" />
        </mxCell>
        <mxCell id="n4cx7VP9dTrJRuBZ_Bju-135" value="PK" style="shape=partialRectangle;overflow=hidden;connectable=0;fillColor=none;top=0;left=0;bottom=0;right=0;fontStyle=1;" vertex="1" parent="n4cx7VP9dTrJRuBZ_Bju-134">
          <mxGeometry width="30" height="70" as="geometry">
            <mxRectangle width="30" height="70" as="alternateBounds" />
          </mxGeometry>
        </mxCell>
        <mxCell id="n4cx7VP9dTrJRuBZ_Bju-136" value="id: int&#xa;LoadScene:void&#xa;Loadingscreen:Object&#xa;Objects:3dmodel&#xa;" style="shape=partialRectangle;overflow=hidden;connectable=0;fillColor=none;top=0;left=0;bottom=0;right=0;align=left;spacingLeft=6;fontStyle=5;" vertex="1" parent="n4cx7VP9dTrJRuBZ_Bju-134">
          <mxGeometry x="30" width="220" height="70" as="geometry">
            <mxRectangle width="220" height="70" as="alternateBounds" />
          </mxGeometry>
        </mxCell>
        <mxCell id="n4cx7VP9dTrJRuBZ_Bju-137" value="" style="shape=partialRectangle;collapsible=0;dropTarget=0;pointerEvents=0;fillColor=none;points=[[0,0.5],[1,0.5]];portConstraint=eastwest;top=0;left=0;right=0;bottom=0;" vertex="1" parent="n4cx7VP9dTrJRuBZ_Bju-133">
          <mxGeometry y="100" width="250" height="30" as="geometry" />
        </mxCell>
        <mxCell id="n4cx7VP9dTrJRuBZ_Bju-138" value="" style="shape=partialRectangle;overflow=hidden;connectable=0;fillColor=none;top=0;left=0;bottom=0;right=0;" vertex="1" parent="n4cx7VP9dTrJRuBZ_Bju-137">
          <mxGeometry width="30" height="30" as="geometry">
            <mxRectangle width="30" height="30" as="alternateBounds" />
          </mxGeometry>
        </mxCell>
        <mxCell id="n4cx7VP9dTrJRuBZ_Bju-139" value="Onclick():event" style="shape=partialRectangle;overflow=hidden;connectable=0;fillColor=none;top=0;left=0;bottom=0;right=0;align=left;spacingLeft=6;" vertex="1" parent="n4cx7VP9dTrJRuBZ_Bju-137">
          <mxGeometry x="30" width="220" height="30" as="geometry">
            <mxRectangle width="220" height="30" as="alternateBounds" />
          </mxGeometry>
        </mxCell>
        <mxCell id="n4cx7VP9dTrJRuBZ_Bju-140" value="" style="shape=partialRectangle;collapsible=0;dropTarget=0;pointerEvents=0;fillColor=none;points=[[0,0.5],[1,0.5]];portConstraint=eastwest;top=0;left=0;right=0;bottom=0;" vertex="1" parent="n4cx7VP9dTrJRuBZ_Bju-133">
          <mxGeometry y="130" width="250" height="30" as="geometry" />
        </mxCell>
        <mxCell id="n4cx7VP9dTrJRuBZ_Bju-141" value="" style="shape=partialRectangle;overflow=hidden;connectable=0;fillColor=none;top=0;left=0;bottom=0;right=0;" vertex="1" parent="n4cx7VP9dTrJRuBZ_Bju-140">
          <mxGeometry width="30" height="30" as="geometry">
            <mxRectangle width="30" height="30" as="alternateBounds" />
          </mxGeometry>
        </mxCell>
        <mxCell id="n4cx7VP9dTrJRuBZ_Bju-142" value="update():event" style="shape=partialRectangle;overflow=hidden;connectable=0;fillColor=none;top=0;left=0;bottom=0;right=0;align=left;spacingLeft=6;" vertex="1" parent="n4cx7VP9dTrJRuBZ_Bju-140">
          <mxGeometry x="30" width="220" height="30" as="geometry">
            <mxRectangle width="220" height="30" as="alternateBounds" />
          </mxGeometry>
        </mxCell>
        <mxCell id="n4cx7VP9dTrJRuBZ_Bju-161" value="" style="shape=partialRectangle;collapsible=0;dropTarget=0;pointerEvents=0;fillColor=none;points=[[0,0.5],[1,0.5]];portConstraint=eastwest;top=0;left=0;right=0;bottom=0;" vertex="1" parent="n4cx7VP9dTrJRuBZ_Bju-133">
          <mxGeometry y="160" width="250" height="30" as="geometry" />
        </mxCell>
        <mxCell id="n4cx7VP9dTrJRuBZ_Bju-162" value="" style="shape=partialRectangle;overflow=hidden;connectable=0;fillColor=none;top=0;left=0;bottom=0;right=0;" vertex="1" parent="n4cx7VP9dTrJRuBZ_Bju-161">
          <mxGeometry width="30" height="30" as="geometry">
            <mxRectangle width="30" height="30" as="alternateBounds" />
          </mxGeometry>
        </mxCell>
        <mxCell id="n4cx7VP9dTrJRuBZ_Bju-163" value="Player controller_id:int" style="shape=partialRectangle;overflow=hidden;connectable=0;fillColor=none;top=0;left=0;bottom=0;right=0;align=left;spacingLeft=6;" vertex="1" parent="n4cx7VP9dTrJRuBZ_Bju-161">
          <mxGeometry x="30" width="220" height="30" as="geometry">
            <mxRectangle width="220" height="30" as="alternateBounds" />
          </mxGeometry>
        </mxCell>
        <mxCell id="n4cx7VP9dTrJRuBZ_Bju-165" value="" style="shape=partialRectangle;collapsible=0;dropTarget=0;pointerEvents=0;fillColor=none;points=[[0,0.5],[1,0.5]];portConstraint=eastwest;top=0;left=0;right=0;bottom=0;" vertex="1" parent="n4cx7VP9dTrJRuBZ_Bju-133">
          <mxGeometry y="190" width="250" height="30" as="geometry" />
        </mxCell>
        <mxCell id="n4cx7VP9dTrJRuBZ_Bju-166" value="" style="shape=partialRectangle;overflow=hidden;connectable=0;fillColor=none;top=0;left=0;bottom=0;right=0;" vertex="1" parent="n4cx7VP9dTrJRuBZ_Bju-165">
          <mxGeometry width="30" height="30" as="geometry">
            <mxRectangle width="30" height="30" as="alternateBounds" />
          </mxGeometry>
        </mxCell>
        <mxCell id="n4cx7VP9dTrJRuBZ_Bju-167" value="Prefab 1_id:int" style="shape=partialRectangle;overflow=hidden;connectable=0;fillColor=none;top=0;left=0;bottom=0;right=0;align=left;spacingLeft=6;" vertex="1" parent="n4cx7VP9dTrJRuBZ_Bju-165">
          <mxGeometry x="30" width="220" height="30" as="geometry">
            <mxRectangle width="220" height="30" as="alternateBounds" />
          </mxGeometry>
        </mxCell>
        <mxCell id="n4cx7VP9dTrJRuBZ_Bju-168" value="Prefab 1" style="shape=table;startSize=30;container=1;collapsible=1;childLayout=tableLayout;fixedRows=1;rowLines=0;fontStyle=1;align=center;resizeLast=1;" vertex="1" parent="1">
          <mxGeometry x="1360" y="-90" width="250" height="180" as="geometry" />
        </mxCell>
        <mxCell id="n4cx7VP9dTrJRuBZ_Bju-169" value="" style="shape=partialRectangle;collapsible=0;dropTarget=0;pointerEvents=0;fillColor=none;points=[[0,0.5],[1,0.5]];portConstraint=eastwest;top=0;left=0;right=0;bottom=1;" vertex="1" parent="n4cx7VP9dTrJRuBZ_Bju-168">
          <mxGeometry y="30" width="250" height="80" as="geometry" />
        </mxCell>
        <mxCell id="n4cx7VP9dTrJRuBZ_Bju-170" value="PK" style="shape=partialRectangle;overflow=hidden;connectable=0;fillColor=none;top=0;left=0;bottom=0;right=0;fontStyle=1;" vertex="1" parent="n4cx7VP9dTrJRuBZ_Bju-169">
          <mxGeometry width="30" height="80" as="geometry">
            <mxRectangle width="30" height="80" as="alternateBounds" />
          </mxGeometry>
        </mxCell>
        <mxCell id="n4cx7VP9dTrJRuBZ_Bju-171" value="id: int&#xa;Texture:texture&#xa;Collider:colliderbox&#xa;sound:soundsource&#xa;whiteboard:class&#xa;" style="shape=partialRectangle;overflow=hidden;connectable=0;fillColor=none;top=0;left=0;bottom=0;right=0;align=left;spacingLeft=6;fontStyle=5;" vertex="1" parent="n4cx7VP9dTrJRuBZ_Bju-169">
          <mxGeometry x="30" width="220" height="80" as="geometry">
            <mxRectangle width="220" height="80" as="alternateBounds" />
          </mxGeometry>
        </mxCell>
        <mxCell id="n4cx7VP9dTrJRuBZ_Bju-172" value="" style="shape=partialRectangle;collapsible=0;dropTarget=0;pointerEvents=0;fillColor=none;points=[[0,0.5],[1,0.5]];portConstraint=eastwest;top=0;left=0;right=0;bottom=0;" vertex="1" parent="n4cx7VP9dTrJRuBZ_Bju-168">
          <mxGeometry y="110" width="250" height="30" as="geometry" />
        </mxCell>
        <mxCell id="n4cx7VP9dTrJRuBZ_Bju-173" value="" style="shape=partialRectangle;overflow=hidden;connectable=0;fillColor=none;top=0;left=0;bottom=0;right=0;" vertex="1" parent="n4cx7VP9dTrJRuBZ_Bju-172">
          <mxGeometry width="30" height="30" as="geometry">
            <mxRectangle width="30" height="30" as="alternateBounds" />
          </mxGeometry>
        </mxCell>
        <mxCell id="n4cx7VP9dTrJRuBZ_Bju-174" value="OnCollider():event" style="shape=partialRectangle;overflow=hidden;connectable=0;fillColor=none;top=0;left=0;bottom=0;right=0;align=left;spacingLeft=6;" vertex="1" parent="n4cx7VP9dTrJRuBZ_Bju-172">
          <mxGeometry x="30" width="220" height="30" as="geometry">
            <mxRectangle width="220" height="30" as="alternateBounds" />
          </mxGeometry>
        </mxCell>
        <mxCell id="n4cx7VP9dTrJRuBZ_Bju-175" value="" style="shape=partialRectangle;collapsible=0;dropTarget=0;pointerEvents=0;fillColor=none;points=[[0,0.5],[1,0.5]];portConstraint=eastwest;top=0;left=0;right=0;bottom=0;" vertex="1" parent="n4cx7VP9dTrJRuBZ_Bju-168">
          <mxGeometry y="140" width="250" height="30" as="geometry" />
        </mxCell>
        <mxCell id="n4cx7VP9dTrJRuBZ_Bju-176" value="" style="shape=partialRectangle;overflow=hidden;connectable=0;fillColor=none;top=0;left=0;bottom=0;right=0;" vertex="1" parent="n4cx7VP9dTrJRuBZ_Bju-175">
          <mxGeometry width="30" height="30" as="geometry">
            <mxRectangle width="30" height="30" as="alternateBounds" />
          </mxGeometry>
        </mxCell>
        <mxCell id="n4cx7VP9dTrJRuBZ_Bju-177" value="update():event" style="shape=partialRectangle;overflow=hidden;connectable=0;fillColor=none;top=0;left=0;bottom=0;right=0;align=left;spacingLeft=6;" vertex="1" parent="n4cx7VP9dTrJRuBZ_Bju-175">
          <mxGeometry x="30" width="220" height="30" as="geometry">
            <mxRectangle width="220" height="30" as="alternateBounds" />
          </mxGeometry>
        </mxCell>
        <mxCell id="n4cx7VP9dTrJRuBZ_Bju-185" value="Prefab 2" style="shape=table;startSize=30;container=1;collapsible=1;childLayout=tableLayout;fixedRows=1;rowLines=0;fontStyle=1;align=center;resizeLast=1;" vertex="1" parent="1">
          <mxGeometry x="1430" y="290" width="250" height="180" as="geometry" />
        </mxCell>
        <mxCell id="n4cx7VP9dTrJRuBZ_Bju-186" value="" style="shape=partialRectangle;collapsible=0;dropTarget=0;pointerEvents=0;fillColor=none;points=[[0,0.5],[1,0.5]];portConstraint=eastwest;top=0;left=0;right=0;bottom=1;" vertex="1" parent="n4cx7VP9dTrJRuBZ_Bju-185">
          <mxGeometry y="30" width="250" height="80" as="geometry" />
        </mxCell>
        <mxCell id="n4cx7VP9dTrJRuBZ_Bju-187" value="PK" style="shape=partialRectangle;overflow=hidden;connectable=0;fillColor=none;top=0;left=0;bottom=0;right=0;fontStyle=1;" vertex="1" parent="n4cx7VP9dTrJRuBZ_Bju-186">
          <mxGeometry width="30" height="80" as="geometry">
            <mxRectangle width="30" height="80" as="alternateBounds" />
          </mxGeometry>
        </mxCell>
        <mxCell id="n4cx7VP9dTrJRuBZ_Bju-188" value="id: int&#xa;Texture:texture&#xa;Collider:colliderbox&#xa;sound:soundsource&#xa;enablecanvas:class&#xa;" style="shape=partialRectangle;overflow=hidden;connectable=0;fillColor=none;top=0;left=0;bottom=0;right=0;align=left;spacingLeft=6;fontStyle=5;" vertex="1" parent="n4cx7VP9dTrJRuBZ_Bju-186">
          <mxGeometry x="30" width="220" height="80" as="geometry">
            <mxRectangle width="220" height="80" as="alternateBounds" />
          </mxGeometry>
        </mxCell>
        <mxCell id="n4cx7VP9dTrJRuBZ_Bju-189" value="" style="shape=partialRectangle;collapsible=0;dropTarget=0;pointerEvents=0;fillColor=none;points=[[0,0.5],[1,0.5]];portConstraint=eastwest;top=0;left=0;right=0;bottom=0;" vertex="1" parent="n4cx7VP9dTrJRuBZ_Bju-185">
          <mxGeometry y="110" width="250" height="30" as="geometry" />
        </mxCell>
        <mxCell id="n4cx7VP9dTrJRuBZ_Bju-190" value="" style="shape=partialRectangle;overflow=hidden;connectable=0;fillColor=none;top=0;left=0;bottom=0;right=0;" vertex="1" parent="n4cx7VP9dTrJRuBZ_Bju-189">
          <mxGeometry width="30" height="30" as="geometry">
            <mxRectangle width="30" height="30" as="alternateBounds" />
          </mxGeometry>
        </mxCell>
        <mxCell id="n4cx7VP9dTrJRuBZ_Bju-191" value="OnCollider():event" style="shape=partialRectangle;overflow=hidden;connectable=0;fillColor=none;top=0;left=0;bottom=0;right=0;align=left;spacingLeft=6;" vertex="1" parent="n4cx7VP9dTrJRuBZ_Bju-189">
          <mxGeometry x="30" width="220" height="30" as="geometry">
            <mxRectangle width="220" height="30" as="alternateBounds" />
          </mxGeometry>
        </mxCell>
        <mxCell id="n4cx7VP9dTrJRuBZ_Bju-192" value="" style="shape=partialRectangle;collapsible=0;dropTarget=0;pointerEvents=0;fillColor=none;points=[[0,0.5],[1,0.5]];portConstraint=eastwest;top=0;left=0;right=0;bottom=0;" vertex="1" parent="n4cx7VP9dTrJRuBZ_Bju-185">
          <mxGeometry y="140" width="250" height="30" as="geometry" />
        </mxCell>
        <mxCell id="n4cx7VP9dTrJRuBZ_Bju-193" value="" style="shape=partialRectangle;overflow=hidden;connectable=0;fillColor=none;top=0;left=0;bottom=0;right=0;" vertex="1" parent="n4cx7VP9dTrJRuBZ_Bju-192">
          <mxGeometry width="30" height="30" as="geometry">
            <mxRectangle width="30" height="30" as="alternateBounds" />
          </mxGeometry>
        </mxCell>
        <mxCell id="n4cx7VP9dTrJRuBZ_Bju-194" value="WristMenu id():int" style="shape=partialRectangle;overflow=hidden;connectable=0;fillColor=none;top=0;left=0;bottom=0;right=0;align=left;spacingLeft=6;" vertex="1" parent="n4cx7VP9dTrJRuBZ_Bju-192">
          <mxGeometry x="30" width="220" height="30" as="geometry">
            <mxRectangle width="220" height="30" as="alternateBounds" />
          </mxGeometry>
        </mxCell>
        <mxCell id="n4cx7VP9dTrJRuBZ_Bju-195" value="Scenes" style="shape=table;startSize=30;container=1;collapsible=1;childLayout=tableLayout;fixedRows=1;rowLines=0;fontStyle=1;align=center;resizeLast=1;" vertex="1" parent="1">
          <mxGeometry x="920" y="280" width="250" height="320" as="geometry" />
        </mxCell>
        <mxCell id="n4cx7VP9dTrJRuBZ_Bju-196" value="" style="shape=partialRectangle;collapsible=0;dropTarget=0;pointerEvents=0;fillColor=none;points=[[0,0.5],[1,0.5]];portConstraint=eastwest;top=0;left=0;right=0;bottom=1;" vertex="1" parent="n4cx7VP9dTrJRuBZ_Bju-195">
          <mxGeometry y="30" width="250" height="70" as="geometry" />
        </mxCell>
        <mxCell id="n4cx7VP9dTrJRuBZ_Bju-197" value="PK" style="shape=partialRectangle;overflow=hidden;connectable=0;fillColor=none;top=0;left=0;bottom=0;right=0;fontStyle=1;" vertex="1" parent="n4cx7VP9dTrJRuBZ_Bju-196">
          <mxGeometry width="30" height="70" as="geometry">
            <mxRectangle width="30" height="70" as="alternateBounds" />
          </mxGeometry>
        </mxCell>
        <mxCell id="n4cx7VP9dTrJRuBZ_Bju-198" value="id: int&#xa;LoadScene:void&#xa;Objects:3dmodel&#xa;" style="shape=partialRectangle;overflow=hidden;connectable=0;fillColor=none;top=0;left=0;bottom=0;right=0;align=left;spacingLeft=6;fontStyle=5;" vertex="1" parent="n4cx7VP9dTrJRuBZ_Bju-196">
          <mxGeometry x="30" width="220" height="70" as="geometry">
            <mxRectangle width="220" height="70" as="alternateBounds" />
          </mxGeometry>
        </mxCell>
        <mxCell id="n4cx7VP9dTrJRuBZ_Bju-199" value="" style="shape=partialRectangle;collapsible=0;dropTarget=0;pointerEvents=0;fillColor=none;points=[[0,0.5],[1,0.5]];portConstraint=eastwest;top=0;left=0;right=0;bottom=0;" vertex="1" parent="n4cx7VP9dTrJRuBZ_Bju-195">
          <mxGeometry y="100" width="250" height="30" as="geometry" />
        </mxCell>
        <mxCell id="n4cx7VP9dTrJRuBZ_Bju-200" value="" style="shape=partialRectangle;overflow=hidden;connectable=0;fillColor=none;top=0;left=0;bottom=0;right=0;" vertex="1" parent="n4cx7VP9dTrJRuBZ_Bju-199">
          <mxGeometry width="30" height="30" as="geometry">
            <mxRectangle width="30" height="30" as="alternateBounds" />
          </mxGeometry>
        </mxCell>
        <mxCell id="n4cx7VP9dTrJRuBZ_Bju-201" value="Onclick():event" style="shape=partialRectangle;overflow=hidden;connectable=0;fillColor=none;top=0;left=0;bottom=0;right=0;align=left;spacingLeft=6;" vertex="1" parent="n4cx7VP9dTrJRuBZ_Bju-199">
          <mxGeometry x="30" width="220" height="30" as="geometry">
            <mxRectangle width="220" height="30" as="alternateBounds" />
          </mxGeometry>
        </mxCell>
        <mxCell id="n4cx7VP9dTrJRuBZ_Bju-202" value="" style="shape=partialRectangle;collapsible=0;dropTarget=0;pointerEvents=0;fillColor=none;points=[[0,0.5],[1,0.5]];portConstraint=eastwest;top=0;left=0;right=0;bottom=0;" vertex="1" parent="n4cx7VP9dTrJRuBZ_Bju-195">
          <mxGeometry y="130" width="250" height="30" as="geometry" />
        </mxCell>
        <mxCell id="n4cx7VP9dTrJRuBZ_Bju-203" value="" style="shape=partialRectangle;overflow=hidden;connectable=0;fillColor=none;top=0;left=0;bottom=0;right=0;" vertex="1" parent="n4cx7VP9dTrJRuBZ_Bju-202">
          <mxGeometry width="30" height="30" as="geometry">
            <mxRectangle width="30" height="30" as="alternateBounds" />
          </mxGeometry>
        </mxCell>
        <mxCell id="n4cx7VP9dTrJRuBZ_Bju-204" value="update():event" style="shape=partialRectangle;overflow=hidden;connectable=0;fillColor=none;top=0;left=0;bottom=0;right=0;align=left;spacingLeft=6;" vertex="1" parent="n4cx7VP9dTrJRuBZ_Bju-202">
          <mxGeometry x="30" width="220" height="30" as="geometry">
            <mxRectangle width="220" height="30" as="alternateBounds" />
          </mxGeometry>
        </mxCell>
        <mxCell id="n4cx7VP9dTrJRuBZ_Bju-205" value="" style="shape=partialRectangle;collapsible=0;dropTarget=0;pointerEvents=0;fillColor=none;points=[[0,0.5],[1,0.5]];portConstraint=eastwest;top=0;left=0;right=0;bottom=0;" vertex="1" parent="n4cx7VP9dTrJRuBZ_Bju-195">
          <mxGeometry y="160" width="250" height="30" as="geometry" />
        </mxCell>
        <mxCell id="n4cx7VP9dTrJRuBZ_Bju-206" value="" style="shape=partialRectangle;overflow=hidden;connectable=0;fillColor=none;top=0;left=0;bottom=0;right=0;" vertex="1" parent="n4cx7VP9dTrJRuBZ_Bju-205">
          <mxGeometry width="30" height="30" as="geometry">
            <mxRectangle width="30" height="30" as="alternateBounds" />
          </mxGeometry>
        </mxCell>
        <mxCell id="n4cx7VP9dTrJRuBZ_Bju-207" value="Player controller_id:int" style="shape=partialRectangle;overflow=hidden;connectable=0;fillColor=none;top=0;left=0;bottom=0;right=0;align=left;spacingLeft=6;" vertex="1" parent="n4cx7VP9dTrJRuBZ_Bju-205">
          <mxGeometry x="30" width="220" height="30" as="geometry">
            <mxRectangle width="220" height="30" as="alternateBounds" />
          </mxGeometry>
        </mxCell>
        <mxCell id="n4cx7VP9dTrJRuBZ_Bju-208" value="" style="shape=partialRectangle;collapsible=0;dropTarget=0;pointerEvents=0;fillColor=none;points=[[0,0.5],[1,0.5]];portConstraint=eastwest;top=0;left=0;right=0;bottom=0;" vertex="1" parent="n4cx7VP9dTrJRuBZ_Bju-195">
          <mxGeometry y="190" width="250" height="30" as="geometry" />
        </mxCell>
        <mxCell id="n4cx7VP9dTrJRuBZ_Bju-209" value="" style="shape=partialRectangle;overflow=hidden;connectable=0;fillColor=none;top=0;left=0;bottom=0;right=0;" vertex="1" parent="n4cx7VP9dTrJRuBZ_Bju-208">
          <mxGeometry width="30" height="30" as="geometry">
            <mxRectangle width="30" height="30" as="alternateBounds" />
          </mxGeometry>
        </mxCell>
        <mxCell id="n4cx7VP9dTrJRuBZ_Bju-210" value="Main Screen id:int" style="shape=partialRectangle;overflow=hidden;connectable=0;fillColor=none;top=0;left=0;bottom=0;right=0;align=left;spacingLeft=6;" vertex="1" parent="n4cx7VP9dTrJRuBZ_Bju-208">
          <mxGeometry x="30" width="220" height="30" as="geometry">
            <mxRectangle width="220" height="30" as="alternateBounds" />
          </mxGeometry>
        </mxCell>
        <mxCell id="n4cx7VP9dTrJRuBZ_Bju-214" value="" style="shape=partialRectangle;collapsible=0;dropTarget=0;pointerEvents=0;fillColor=none;points=[[0,0.5],[1,0.5]];portConstraint=eastwest;top=0;left=0;right=0;bottom=0;" vertex="1" parent="n4cx7VP9dTrJRuBZ_Bju-195">
          <mxGeometry y="220" width="250" height="30" as="geometry" />
        </mxCell>
        <mxCell id="n4cx7VP9dTrJRuBZ_Bju-215" value="" style="shape=partialRectangle;overflow=hidden;connectable=0;fillColor=none;top=0;left=0;bottom=0;right=0;" vertex="1" parent="n4cx7VP9dTrJRuBZ_Bju-214">
          <mxGeometry width="30" height="30" as="geometry">
            <mxRectangle width="30" height="30" as="alternateBounds" />
          </mxGeometry>
        </mxCell>
        <mxCell id="n4cx7VP9dTrJRuBZ_Bju-216" value="Prefab 1_id:int" style="shape=partialRectangle;overflow=hidden;connectable=0;fillColor=none;top=0;left=0;bottom=0;right=0;align=left;spacingLeft=6;" vertex="1" parent="n4cx7VP9dTrJRuBZ_Bju-214">
          <mxGeometry x="30" width="220" height="30" as="geometry">
            <mxRectangle width="220" height="30" as="alternateBounds" />
          </mxGeometry>
        </mxCell>
        <mxCell id="n4cx7VP9dTrJRuBZ_Bju-227" value="" style="shape=partialRectangle;collapsible=0;dropTarget=0;pointerEvents=0;fillColor=none;points=[[0,0.5],[1,0.5]];portConstraint=eastwest;top=0;left=0;right=0;bottom=0;" vertex="1" parent="n4cx7VP9dTrJRuBZ_Bju-195">
          <mxGeometry y="250" width="250" height="30" as="geometry" />
        </mxCell>
        <mxCell id="n4cx7VP9dTrJRuBZ_Bju-228" value="" style="shape=partialRectangle;overflow=hidden;connectable=0;fillColor=none;top=0;left=0;bottom=0;right=0;" vertex="1" parent="n4cx7VP9dTrJRuBZ_Bju-227">
          <mxGeometry width="30" height="30" as="geometry">
            <mxRectangle width="30" height="30" as="alternateBounds" />
          </mxGeometry>
        </mxCell>
        <mxCell id="n4cx7VP9dTrJRuBZ_Bju-229" value="Prefab 2_id:int" style="shape=partialRectangle;overflow=hidden;connectable=0;fillColor=none;top=0;left=0;bottom=0;right=0;align=left;spacingLeft=6;" vertex="1" parent="n4cx7VP9dTrJRuBZ_Bju-227">
          <mxGeometry x="30" width="220" height="30" as="geometry">
            <mxRectangle width="220" height="30" as="alternateBounds" />
          </mxGeometry>
        </mxCell>
        <mxCell id="n4cx7VP9dTrJRuBZ_Bju-230" value="" style="shape=partialRectangle;collapsible=0;dropTarget=0;pointerEvents=0;fillColor=none;points=[[0,0.5],[1,0.5]];portConstraint=eastwest;top=0;left=0;right=0;bottom=0;" vertex="1" parent="n4cx7VP9dTrJRuBZ_Bju-195">
          <mxGeometry y="280" width="250" height="30" as="geometry" />
        </mxCell>
        <mxCell id="n4cx7VP9dTrJRuBZ_Bju-231" value="" style="shape=partialRectangle;overflow=hidden;connectable=0;fillColor=none;top=0;left=0;bottom=0;right=0;" vertex="1" parent="n4cx7VP9dTrJRuBZ_Bju-230">
          <mxGeometry width="30" height="30" as="geometry">
            <mxRectangle width="30" height="30" as="alternateBounds" />
          </mxGeometry>
        </mxCell>
        <mxCell id="n4cx7VP9dTrJRuBZ_Bju-232" value="Prefab 3_id:int" style="shape=partialRectangle;overflow=hidden;connectable=0;fillColor=none;top=0;left=0;bottom=0;right=0;align=left;spacingLeft=6;" vertex="1" parent="n4cx7VP9dTrJRuBZ_Bju-230">
          <mxGeometry x="30" width="220" height="30" as="geometry">
            <mxRectangle width="220" height="30" as="alternateBounds" />
          </mxGeometry>
        </mxCell>
        <mxCell id="n4cx7VP9dTrJRuBZ_Bju-217" value="Prefab 3" style="shape=table;startSize=30;container=1;collapsible=1;childLayout=tableLayout;fixedRows=1;rowLines=0;fontStyle=1;align=center;resizeLast=1;" vertex="1" parent="1">
          <mxGeometry x="1430" y="570" width="250" height="180" as="geometry" />
        </mxCell>
        <mxCell id="n4cx7VP9dTrJRuBZ_Bju-218" value="" style="shape=partialRectangle;collapsible=0;dropTarget=0;pointerEvents=0;fillColor=none;points=[[0,0.5],[1,0.5]];portConstraint=eastwest;top=0;left=0;right=0;bottom=1;" vertex="1" parent="n4cx7VP9dTrJRuBZ_Bju-217">
          <mxGeometry y="30" width="250" height="80" as="geometry" />
        </mxCell>
        <mxCell id="n4cx7VP9dTrJRuBZ_Bju-219" value="PK" style="shape=partialRectangle;overflow=hidden;connectable=0;fillColor=none;top=0;left=0;bottom=0;right=0;fontStyle=1;" vertex="1" parent="n4cx7VP9dTrJRuBZ_Bju-218">
          <mxGeometry width="30" height="80" as="geometry">
            <mxRectangle width="30" height="80" as="alternateBounds" />
          </mxGeometry>
        </mxCell>
        <mxCell id="n4cx7VP9dTrJRuBZ_Bju-220" value="id: int&#xa;Texture:texture&#xa;Collider:colliderbox&#xa;sound:soundsource&#xa;HVRGrabbable:class&#xa;" style="shape=partialRectangle;overflow=hidden;connectable=0;fillColor=none;top=0;left=0;bottom=0;right=0;align=left;spacingLeft=6;fontStyle=5;" vertex="1" parent="n4cx7VP9dTrJRuBZ_Bju-218">
          <mxGeometry x="30" width="220" height="80" as="geometry">
            <mxRectangle width="220" height="80" as="alternateBounds" />
          </mxGeometry>
        </mxCell>
        <mxCell id="n4cx7VP9dTrJRuBZ_Bju-221" value="" style="shape=partialRectangle;collapsible=0;dropTarget=0;pointerEvents=0;fillColor=none;points=[[0,0.5],[1,0.5]];portConstraint=eastwest;top=0;left=0;right=0;bottom=0;" vertex="1" parent="n4cx7VP9dTrJRuBZ_Bju-217">
          <mxGeometry y="110" width="250" height="30" as="geometry" />
        </mxCell>
        <mxCell id="n4cx7VP9dTrJRuBZ_Bju-222" value="" style="shape=partialRectangle;overflow=hidden;connectable=0;fillColor=none;top=0;left=0;bottom=0;right=0;" vertex="1" parent="n4cx7VP9dTrJRuBZ_Bju-221">
          <mxGeometry width="30" height="30" as="geometry">
            <mxRectangle width="30" height="30" as="alternateBounds" />
          </mxGeometry>
        </mxCell>
        <mxCell id="n4cx7VP9dTrJRuBZ_Bju-223" value="OnCollider():event" style="shape=partialRectangle;overflow=hidden;connectable=0;fillColor=none;top=0;left=0;bottom=0;right=0;align=left;spacingLeft=6;" vertex="1" parent="n4cx7VP9dTrJRuBZ_Bju-221">
          <mxGeometry x="30" width="220" height="30" as="geometry">
            <mxRectangle width="220" height="30" as="alternateBounds" />
          </mxGeometry>
        </mxCell>
        <mxCell id="n4cx7VP9dTrJRuBZ_Bju-224" value="" style="shape=partialRectangle;collapsible=0;dropTarget=0;pointerEvents=0;fillColor=none;points=[[0,0.5],[1,0.5]];portConstraint=eastwest;top=0;left=0;right=0;bottom=0;" vertex="1" parent="n4cx7VP9dTrJRuBZ_Bju-217">
          <mxGeometry y="140" width="250" height="30" as="geometry" />
        </mxCell>
        <mxCell id="n4cx7VP9dTrJRuBZ_Bju-225" value="" style="shape=partialRectangle;overflow=hidden;connectable=0;fillColor=none;top=0;left=0;bottom=0;right=0;" vertex="1" parent="n4cx7VP9dTrJRuBZ_Bju-224">
          <mxGeometry width="30" height="30" as="geometry">
            <mxRectangle width="30" height="30" as="alternateBounds" />
          </mxGeometry>
        </mxCell>
        <mxCell id="n4cx7VP9dTrJRuBZ_Bju-226" value="Player controller_id:int" style="shape=partialRectangle;overflow=hidden;connectable=0;fillColor=none;top=0;left=0;bottom=0;right=0;align=left;spacingLeft=6;" vertex="1" parent="n4cx7VP9dTrJRuBZ_Bju-224">
          <mxGeometry x="30" width="220" height="30" as="geometry">
            <mxRectangle width="220" height="30" as="alternateBounds" />
          </mxGeometry>
        </mxCell>
        <mxCell id="n4cx7VP9dTrJRuBZ_Bju-264" value="&lt;font style=&quot;font-size: 32px;&quot;&gt;Scene&lt;/font&gt;" style="text;html=1;strokeColor=none;fillColor=none;align=center;verticalAlign=middle;whiteSpace=wrap;rounded=0;" vertex="1" parent="1">
          <mxGeometry x="820" y="-280" width="60" height="30" as="geometry" />
        </mxCell>
        <mxCell id="ySrj9T-k7ex78Q9-Rxi--1" value="1" style="endArrow=open;html=1;endSize=12;startArrow=diamondThin;startSize=14;startFill=1;edgeStyle=orthogonalEdgeStyle;align=left;verticalAlign=bottom;rounded=0;exitX=0;exitY=0.5;exitDx=0;exitDy=0;entryX=0;entryY=0.5;entryDx=0;entryDy=0;" edge="1" parent="1" source="n4cx7VP9dTrJRuBZ_Bju-57" target="n4cx7VP9dTrJRuBZ_Bju-137">
          <mxGeometry x="-0.9675" y="-5" relative="1" as="geometry">
            <mxPoint x="320" y="-90" as="sourcePoint" />
            <mxPoint x="480" y="-90" as="targetPoint" />
            <Array as="points">
              <mxPoint y="85" />
              <mxPoint y="-20" />
              <mxPoint x="615" y="-20" />
              <mxPoint x="615" y="125" />
            </Array>
            <mxPoint as="offset" />
          </mxGeometry>
        </mxCell>
        <mxCell id="ySrj9T-k7ex78Q9-Rxi--2" value="Relation" style="endArrow=open;html=1;endSize=12;startArrow=diamondThin;startSize=14;startFill=0;edgeStyle=orthogonalEdgeStyle;rounded=0;exitX=-0.004;exitY=0.15;exitDx=0;exitDy=0;exitPerimeter=0;" edge="1" parent="1" source="n4cx7VP9dTrJRuBZ_Bju-169" target="n4cx7VP9dTrJRuBZ_Bju-165">
          <mxGeometry relative="1" as="geometry">
            <mxPoint x="1060" y="320" as="sourcePoint" />
            <mxPoint x="1220" y="320" as="targetPoint" />
          </mxGeometry>
        </mxCell>
        <mxCell id="ySrj9T-k7ex78Q9-Rxi--3" value="0..n" style="edgeLabel;resizable=0;html=1;align=left;verticalAlign=top;" connectable="0" vertex="1" parent="ySrj9T-k7ex78Q9-Rxi--2">
          <mxGeometry x="-1" relative="1" as="geometry">
            <mxPoint x="-49" as="offset" />
          </mxGeometry>
        </mxCell>
        <mxCell id="ySrj9T-k7ex78Q9-Rxi--4" value="1" style="edgeLabel;resizable=0;html=1;align=right;verticalAlign=top;" connectable="0" vertex="1" parent="ySrj9T-k7ex78Q9-Rxi--2">
          <mxGeometry x="1" relative="1" as="geometry" />
        </mxCell>
        <mxCell id="ySrj9T-k7ex78Q9-Rxi--5" value="Relation" style="endArrow=open;html=1;endSize=12;startArrow=diamondThin;startSize=14;startFill=0;edgeStyle=orthogonalEdgeStyle;rounded=0;exitX=0.008;exitY=0.4;exitDx=0;exitDy=0;exitPerimeter=0;entryX=1;entryY=0.5;entryDx=0;entryDy=0;" edge="1" parent="1" source="n4cx7VP9dTrJRuBZ_Bju-169" target="n4cx7VP9dTrJRuBZ_Bju-214">
          <mxGeometry relative="1" as="geometry">
            <mxPoint x="1292" y="62" as="sourcePoint" />
            <mxPoint x="1180" y="225" as="targetPoint" />
            <Array as="points">
              <mxPoint x="1290" y="-28" />
              <mxPoint x="1290" y="515" />
            </Array>
          </mxGeometry>
        </mxCell>
        <mxCell id="ySrj9T-k7ex78Q9-Rxi--6" value="0..n" style="edgeLabel;resizable=0;html=1;align=left;verticalAlign=top;" connectable="0" vertex="1" parent="ySrj9T-k7ex78Q9-Rxi--5">
          <mxGeometry x="-1" relative="1" as="geometry">
            <mxPoint x="-52" as="offset" />
          </mxGeometry>
        </mxCell>
        <mxCell id="ySrj9T-k7ex78Q9-Rxi--7" value="1" style="edgeLabel;resizable=0;html=1;align=right;verticalAlign=top;" connectable="0" vertex="1" parent="ySrj9T-k7ex78Q9-Rxi--5">
          <mxGeometry x="1" relative="1" as="geometry" />
        </mxCell>
        <mxCell id="ySrj9T-k7ex78Q9-Rxi--8" value="Relation" style="endArrow=open;html=1;endSize=12;startArrow=diamondThin;startSize=14;startFill=0;edgeStyle=orthogonalEdgeStyle;rounded=0;exitX=-0.012;exitY=0.075;exitDx=0;exitDy=0;exitPerimeter=0;entryX=1;entryY=0.5;entryDx=0;entryDy=0;" edge="1" parent="1" source="n4cx7VP9dTrJRuBZ_Bju-186" target="n4cx7VP9dTrJRuBZ_Bju-227">
          <mxGeometry relative="1" as="geometry">
            <mxPoint x="1010" y="460" as="sourcePoint" />
            <mxPoint x="1170" y="460" as="targetPoint" />
          </mxGeometry>
        </mxCell>
        <mxCell id="ySrj9T-k7ex78Q9-Rxi--9" value="0..n" style="edgeLabel;resizable=0;html=1;align=left;verticalAlign=top;" connectable="0" vertex="1" parent="ySrj9T-k7ex78Q9-Rxi--8">
          <mxGeometry x="-1" relative="1" as="geometry">
            <mxPoint x="-67" as="offset" />
          </mxGeometry>
        </mxCell>
        <mxCell id="ySrj9T-k7ex78Q9-Rxi--10" value="1" style="edgeLabel;resizable=0;html=1;align=right;verticalAlign=top;" connectable="0" vertex="1" parent="ySrj9T-k7ex78Q9-Rxi--8">
          <mxGeometry x="1" relative="1" as="geometry" />
        </mxCell>
        <mxCell id="ySrj9T-k7ex78Q9-Rxi--11" value="Relation" style="endArrow=open;html=1;endSize=12;startArrow=diamondThin;startSize=14;startFill=0;edgeStyle=orthogonalEdgeStyle;rounded=0;exitX=-0.008;exitY=0.125;exitDx=0;exitDy=0;exitPerimeter=0;" edge="1" parent="1" source="n4cx7VP9dTrJRuBZ_Bju-218" target="n4cx7VP9dTrJRuBZ_Bju-230">
          <mxGeometry relative="1" as="geometry">
            <mxPoint x="1020" y="440" as="sourcePoint" />
            <mxPoint x="1180" y="440" as="targetPoint" />
          </mxGeometry>
        </mxCell>
        <mxCell id="ySrj9T-k7ex78Q9-Rxi--12" value="0..n" style="edgeLabel;resizable=0;html=1;align=left;verticalAlign=top;" connectable="0" vertex="1" parent="ySrj9T-k7ex78Q9-Rxi--11">
          <mxGeometry x="-1" relative="1" as="geometry">
            <mxPoint x="-68" as="offset" />
          </mxGeometry>
        </mxCell>
        <mxCell id="ySrj9T-k7ex78Q9-Rxi--13" value="1" style="edgeLabel;resizable=0;html=1;align=right;verticalAlign=top;" connectable="0" vertex="1" parent="ySrj9T-k7ex78Q9-Rxi--11">
          <mxGeometry x="1" relative="1" as="geometry" />
        </mxCell>
        <mxCell id="ySrj9T-k7ex78Q9-Rxi--18" value="" style="endArrow=open;endFill=1;endSize=12;html=1;rounded=0;exitX=0;exitY=0.143;exitDx=0;exitDy=0;exitPerimeter=0;entryX=0;entryY=0.5;entryDx=0;entryDy=0;" edge="1" parent="1" source="n4cx7VP9dTrJRuBZ_Bju-77" target="n4cx7VP9dTrJRuBZ_Bju-125">
          <mxGeometry width="160" relative="1" as="geometry">
            <mxPoint x="790" y="390" as="sourcePoint" />
            <mxPoint x="950" y="390" as="targetPoint" />
            <Array as="points">
              <mxPoint x="10" y="343" />
              <mxPoint x="10" y="255" />
            </Array>
          </mxGeometry>
        </mxCell>
        <mxCell id="ySrj9T-k7ex78Q9-Rxi--19" value="" style="endArrow=open;endFill=1;endSize=12;html=1;rounded=0;exitX=-0.013;exitY=0.238;exitDx=0;exitDy=0;exitPerimeter=0;entryX=0;entryY=0.5;entryDx=0;entryDy=0;" edge="1" parent="1" source="n4cx7VP9dTrJRuBZ_Bju-70" target="n4cx7VP9dTrJRuBZ_Bju-122">
          <mxGeometry width="160" relative="1" as="geometry">
            <mxPoint x="790" y="390" as="sourcePoint" />
            <mxPoint x="950" y="390" as="targetPoint" />
            <Array as="points">
              <mxPoint x="-20" y="620" />
              <mxPoint x="-20" y="225" />
            </Array>
          </mxGeometry>
        </mxCell>
        <mxCell id="ySrj9T-k7ex78Q9-Rxi--20" value="" style="endArrow=open;endFill=1;endSize=12;html=1;rounded=0;exitX=-0.013;exitY=0.213;exitDx=0;exitDy=0;exitPerimeter=0;entryX=1;entryY=0.5;entryDx=0;entryDy=0;" edge="1" parent="1" source="n4cx7VP9dTrJRuBZ_Bju-105" target="n4cx7VP9dTrJRuBZ_Bju-117">
          <mxGeometry width="160" relative="1" as="geometry">
            <mxPoint x="790" y="390" as="sourcePoint" />
            <mxPoint x="950" y="390" as="targetPoint" />
            <Array as="points">
              <mxPoint x="350" y="428" />
              <mxPoint x="350" y="828" />
            </Array>
          </mxGeometry>
        </mxCell>
        <mxCell id="ySrj9T-k7ex78Q9-Rxi--21" value="Relation" style="endArrow=open;html=1;endSize=12;startArrow=diamondThin;startSize=14;startFill=0;edgeStyle=orthogonalEdgeStyle;rounded=0;entryX=-0.013;entryY=0.167;entryDx=0;entryDy=0;entryPerimeter=0;" edge="1" parent="1" source="n4cx7VP9dTrJRuBZ_Bju-208" target="n4cx7VP9dTrJRuBZ_Bju-134">
          <mxGeometry relative="1" as="geometry">
            <mxPoint x="790" y="390" as="sourcePoint" />
            <mxPoint x="950" y="390" as="targetPoint" />
            <Array as="points">
              <mxPoint x="810" y="485" />
              <mxPoint x="810" y="52" />
            </Array>
          </mxGeometry>
        </mxCell>
        <mxCell id="ySrj9T-k7ex78Q9-Rxi--22" value="0..n" style="edgeLabel;resizable=0;html=1;align=left;verticalAlign=top;" connectable="0" vertex="1" parent="ySrj9T-k7ex78Q9-Rxi--21">
          <mxGeometry x="-1" relative="1" as="geometry">
            <mxPoint x="-52" y="2" as="offset" />
          </mxGeometry>
        </mxCell>
        <mxCell id="ySrj9T-k7ex78Q9-Rxi--23" value="1" style="edgeLabel;resizable=0;html=1;align=right;verticalAlign=top;" connectable="0" vertex="1" parent="ySrj9T-k7ex78Q9-Rxi--21">
          <mxGeometry x="1" relative="1" as="geometry" />
        </mxCell>
      </root>
    </mxGraphModel>
  </diagram>
</mxfile>
